<?xml version="1.0" encoding="UTF-8" standalone="no"?>
<svg width="109px" height="25px" viewBox="0 0 109 25" version="1.1" xmlns="http://www.w3.org/2000/svg" xmlns:xlink="http://www.w3.org/1999/xlink" xmlns:sketch="http://www.bohemiancoding.com/sketch/ns">
    <!-- Generator: Sketch 3.0.2 (7799) - http://www.bohemiancoding.com/sketch -->
    <title>DJ + witter</title>
    <description>Created with Sketch.</description>
    <defs></defs>
    <g id="Page-1" stroke="none" stroke-width="1" fill="none" fill-rule="evenodd" sketch:type="MSPage">
        <g id="Artboard-2" sketch:type="MSArtboardGroup" transform="translate(-31.000000, -24.000000)" fill="#F7F7F7">
            <g id="DJ-+-witter" sketch:type="MSLayerGroup" transform="translate(31.000000, 19.000000)">
                <path d="M0.103857379,5.98297949 L0.103857379,29.8314667 L10.3914401,29.8314667 C12.2173838,29.8314667 13.803927,29.5252917 15.1511172,28.9129325 C16.4983073,28.3005733 17.6228046,27.4599838 18.5246427,26.3911387 C19.4264807,25.3222936 20.1000657,24.0530591 20.5454178,22.583397 C20.99077,21.113735 21.2134427,19.5104914 21.2134427,17.7736181 C21.2134427,15.7918012 20.9406686,14.0660875 20.3951122,12.5964255 C19.8495559,11.1267635 19.0924686,9.90206352 18.1238277,8.92228884 C17.1551869,7.94251416 16.0084223,7.20769417 14.6834998,6.71780683 C13.3585772,6.22791949 11.9279049,5.98297949 10.3914401,5.98297949 L0.103857379,5.98297949 Z M8.9705235,26.4292239 L8.9705235,14.8306689 L11.857275,14.8306689 C12.8538965,14.8306689 13.6915616,14.9724276 14.3702952,15.2559492 C15.0490289,15.5394709 15.5945851,15.9475641 16.0069802,16.4802411 C16.4193753,17.0129182 16.7157799,17.6529802 16.8962028,18.4004464 C17.0766256,19.1479125 17.1668357,19.9855776 17.1668357,20.9134666 C17.1668357,21.9272713 17.0379642,22.7864149 16.7802172,23.4909233 C16.5224703,24.1954316 16.1788128,24.7667621 15.7492345,25.204932 C15.3196563,25.6431018 14.8299444,25.9566892 14.2800842,26.1457036 C13.7302241,26.3347181 13.1631893,26.4292239 12.5789628,26.4292239 L8.9705235,26.4292239 Z" id="DJ" sketch:type="MSShapeGroup"></path>
                <text id="witter" sketch:type="MSTextLayer" font-family="Helvetica Neue" font-size="29.5502735" font-weight="bold">
                    <tspan x="28" y="29">witter</tspan>
                </text>
            </g>
        </g>
    </g>
</svg>